<svg xmlns="http://www.w3.org/2000/svg" width="100" height="100" viewBox="0 0 100 100" fill="none">
  <circle cx="50" cy="50" r="50" fill="#E6E6FF"/>
  <path d="M50 30C42.27 30 36 36.27 36 44C36 51.73 42.27 58 50 58C57.73 58 64 51.73 64 44C64 36.27 57.73 30 50 30ZM50 54C44.48 54 40 49.52 40 44C40 38.48 44.48 34 50 34C55.52 34 60 38.48 60 44C60 49.52 55.52 54 50 54Z" fill="#8139F2"/>
  <path d="M50 56C37.87 56 28 65.87 28 78V82H72V78C72 65.87 62.13 56 50 56ZM68 78H32C32 68.08 40.08 60 50 60C59.92 60 68 68.08 68 78Z" fill="#8139F2"/>
</svg>