<svg width="120" height="40" viewBox="0 0 120 40" fill="none" xmlns="http://www.w3.org/2000/svg">
  <rect width="120" height="40" rx="4" fill="#2A6AE8"/>
  <path d="M18.0381 28V12.5455H25.1705C26.6136 12.5455 27.8381 12.8097 28.8438 13.3381C29.8494 13.8594 30.6173 14.5926 31.1456 15.5376C31.6811 16.4826 31.9489 17.5696 31.9489 18.7983C31.9489 20.027 31.6811 21.1105 31.1456 22.0483C30.6173 22.9861 29.8494 23.7121 28.8438 24.2262C27.8381 24.7404 26.6136 24.9975 25.1705 24.9975H20.7727V28H18.0381ZM20.7727 22.6016H24.9915C26.0256 22.6016 26.8631 22.3125 27.5039 21.7344C28.1449 21.1491 28.4652 20.1222 28.4652 18.7983C28.4652 17.4744 28.1449 16.451 27.5039 15.7273C26.8631 15.0036 26.0256 14.6418 24.9915 14.6418H20.7727V22.6016Z" fill="white"/>
  <path d="M44.3594 28.2486C42.8163 28.2486 41.4528 27.9098 40.2692 27.2322C39.0925 26.5475 38.1903 25.6026 37.5625 24.3974C36.9347 23.1853 36.6207 21.7841 36.6207 20.1939C36.6207 18.6037 36.9347 17.206 37.5625 16.0011C38.1903 14.7888 39.0925 13.8439 40.2692 13.1662C41.4528 12.4815 42.8163 12.1392 44.3594 12.1392C45.9023 12.1392 47.2623 12.4815 48.4389 13.1662C49.6157 13.8439 50.5179 14.7888 51.1456 16.0011C51.7734 17.206 52.0873 18.6037 52.0873 20.1939C52.0873 21.7841 51.7734 23.1853 51.1456 24.3974C50.5179 25.6026 49.6157 26.5475 48.4389 27.2322C47.2623 27.9098 45.9023 28.2486 44.3594 28.2486ZM44.3594 25.8097C45.3082 25.8097 46.133 25.5916 46.8338 25.1553C47.5347 24.7191 48.0736 24.0767 48.4503 23.2283C48.8271 22.3799 49.0156 21.3636 49.0156 20.1797C49.0156 18.9957 48.8271 17.973 48.4503 17.1117C48.0736 16.2502 47.5347 15.5994 46.8338 15.1591C46.133 14.7188 45.3082 14.4986 44.3594 14.4986C43.4105 14.4986 42.5857 14.7188 41.8849 15.1591C41.184 15.5994 40.6452 16.2502 40.2685 17.1117C39.8917 17.973 39.7031 18.9957 39.7031 20.1797C39.7031 21.3636 39.8917 22.3799 40.2685 23.2283C40.6452 24.0767 41.184 24.7191 41.8849 25.1553C42.5857 25.5916 43.4105 25.8097 44.3594 25.8097Z" fill="white"/>
  <path d="M70.8054 12.5455V28H68.071V21.571H60.831V28H58.0966V12.5455H60.831V19.4886H68.071V12.5455H70.8054Z" fill="white"/>
  <path d="M79.4219 28V12.5455H82.1565V15.7273H82.4013C82.6674 14.8079 83.1605 14.0819 83.8805 13.5497C84.6005 13.0105 85.4844 12.741 86.532 12.741C86.7415 12.741 86.9865 12.7517 87.267 12.7727C87.5476 12.7936 87.7642 12.821 87.9169 12.8551V15.5128C87.7642 15.4645 87.5263 15.4233 87.2031 15.3892C86.8799 15.3551 86.5674 15.3381 86.2656 15.3381C85.4318 15.3381 84.6861 15.5213 84.0285 15.8878C83.3778 16.2472 82.8672 16.7472 82.4964 17.3878C82.1328 18.0213 81.9509 18.75 81.9509 19.5739V28H79.4219Z" fill="white"/>
  <path d="M98.1052 28.2486C96.5763 28.2486 95.227 27.9205 94.0575 27.2642C92.8879 26.608 91.9644 25.6811 91.2919 24.4837C90.6266 23.2793 90.2939 21.8708 90.2939 20.2585C90.2939 18.6676 90.6266 17.2697 91.2919 16.0653C91.9644 14.8608 92.8736 13.9268 94.0174 13.2635C95.1613 12.6002 96.4815 12.2685 97.978 12.2685C98.9339 12.2685 99.8431 12.4226 100.705 12.7308C101.575 13.039 102.346 13.5128 103.018 14.1527C103.697 14.7926 104.236 15.5909 104.634 16.5476C105.031 17.5043 105.23 18.6321 105.23 19.9311V20.9723H91.8252V18.8118H102.644C102.644 17.9418 102.459 17.1661 102.09 16.4844C101.728 15.8026 101.221 15.2599 100.57 14.8565C99.9262 14.4531 99.1775 14.2514 98.3239 14.2514C97.391 14.2514 96.5727 14.4886 95.8689 14.9631C95.165 15.4304 94.6187 16.0369 94.2301 16.7827C93.8414 17.5213 93.6472 18.3196 93.6472 19.1755V20.8594C93.6472 21.9992 93.8521 22.9582 94.2621 23.7365C94.6791 24.5078 95.2585 25.1008 95.9993 25.5156C96.7401 25.9233 97.5952 26.1272 98.5643 26.1272C99.1991 26.1272 99.7802 26.0342 100.307 25.8482C100.835 25.6622 101.293 25.3932 101.689 25.0412C102.086 24.6892 102.392 24.25 102.608 23.7237L105.122 24.4837C104.861 25.2904 104.43 26.0011 103.831 26.6158C103.232 27.2237 102.49 27.6983 101.604 28.0398C100.718 28.179 99.7481 28.2486 98.1052 28.2486Z" fill="white"/>
</svg>
