<?xml version="1.0" encoding="UTF-8"?><svg width="300" height="300" viewBox="0 0 300 300" fill="none" xmlns="http://www.w3.org/2000/svg">
  <path d="M210.879 224.182C217.166 233.532 220.992 247.053 220.992 257.773C220.992 262.773 219.619 267.773 216.319 271.073C213.019 274.373 208.019 275.746 203.019 275.746C188.906 275.746 175.079 269.699 165.865 258.453C159.172 250.159 155.839 240.946 155.839 230.906C155.839 218.773 160.839 205.932 170.732 197.559C174.719 194.259 179.719 192.886 184.719 192.886C195.306 192.886 204.592 200.253 210.879 224.182Z" fill="#F5F5F5"/>
  <path d="M190.732 275.746C193.732 275.746 196.732 275.066 199.445 273.693C200.146 271.919 200.572 270.066 200.572 268.159C200.572 260.812 197.992 250.479 193.466 243.746C189.359 237.519 183.906 233.532 178.759 233.532C175.759 233.532 172.759 234.906 169.759 236.959C163.532 240.946 160.146 248.293 160.146 255.639C160.146 259.626 161.519 263.612 164.132 267.599C168.239 272.879 174.466 275.746 182.466 275.746H190.732Z" fill="#E6E6E6"/>
  <path d="M202.079 244.319C202.832 244.319 203.439 243.712 203.439 242.959C203.439 242.206 202.832 241.599 202.079 241.599C201.325 241.599 200.719 242.206 200.719 242.959C200.719 243.712 201.325 244.319 202.079 244.319Z" fill="#808080"/>
  <path d="M182.092 263.612C182.845 263.612 183.452 263.005 183.452 262.252C183.452 261.499 182.845 260.892 182.092 260.892C181.339 260.892 180.732 261.499 180.732 262.252C180.732 263.005 181.339 263.612 182.092 263.612Z" fill="#808080"/>
  <path d="M210.879 224.182C213.625 228.509 215.965 233.959 217.865 239.599C216.492 237.546 214.439 236.173 211.439 236.173C209.385 236.173 207.332 237.546 206.639 239.599C205.265 244.973 207.332 250.479 211.439 253.479C209.385 253.479 208.012 252.786 205.885 251.413C203.832 250.039 202.459 248.666 202.459 246.613C202.459 245.239 203.152 243.866 203.152 242.493C203.152 241.799 202.459 241.119 201.765 241.119C201.072 241.119 200.379 241.799 200.379 242.493C200.379 243.866 199.685 245.239 199.685 246.613C199.685 250.599 204.512 253.599 208.705 254.293C206.652 254.986 204.599 255.679 202.545 255.679C191.625 255.679 184.825 242.493 184.825 232.373C184.825 230.319 187.825 227.319 185.772 227.319C180.772 227.319 175.772 224.319 175.772 211.133C175.772 201.013 182.099 192.886 189.719 192.886C183.492 192.886 177.265 194.946 171.039 197.946C161.146 203.066 155.839 214.133 155.839 225.199C155.839 235.239 159.172 244.499 165.865 252.786C175.079 264.079 188.905 270.066 203.019 270.066C208.019 270.066 213.019 268.693 216.319 265.399C218.372 263.346 219.745 260.346 220.439 257.359C220.992 248.773 217.865 236.519 212.865 229.173C212.172 227.799 211.479 226.426 210.879 224.182Z" fill="#E6E6E6"/>
  <path d="M135.885 125.733C135.885 103.519 127.732 82.653 114.545 67.426C112.492 64.699 110.439 62.646 108.385 59.953C106.332 57.259 104.279 54.953 101.545 52.646C87.679 42.526 70.959 37.473 54.239 37.473C44.812 37.473 35.385 39.526 26.639 43.519C17.212 47.513 8.465 53.579 1.665 60.646C0.972 61.339 0.279 62.033 -0.414 62.726C-1.107 63.419 -1.801 64.113 -2.494 64.806C-4.548 67.546 -6.6 69.599 -8.654 72.339C-15.454 82.459 -20.061 94.773 -22.114 107.513C-24.168 120.253 -23.474 132.993 -20.061 145.733C-19.368 147.786 -18.674 149.839 -17.981 151.893C-17.287 153.946 -16.594 155.999 -15.214 157.666C-4.548 175.579 11.778 188.319 30.385 193.373C49.678 198.426 69.665 195 86.998 184.193C87.692 183.886 88.385 183.193 89.078 182.886C89.772 182.193 90.465 181.886 91.158 181.193C111.132 166.426 122.039 146.426 122.039 125.386V125.733H135.885Z" fill="#F5F5F5"/>
  <path d="M84.251 62.726L112.492 77.406V106.166L84.945 122.1L56.705 106.166V77.406L84.251 62.726Z" fill="white" stroke="#6200EE" stroke-width="3"/>
  <path d="M56.252 106.166L84.492 122.1V179.619" stroke="#6200EE" stroke-width="3"/>
  <path d="M112.492 106.166L84.252 122.1" stroke="#6200EE" stroke-width="3"/>
  <path d="M84.252 62.726V91.486" stroke="#6200EE" stroke-width="3"/>
  <path d="M99.105 70.626L99.105 99.386" stroke="#6200EE" stroke-width="3"/>
  <path d="M103.398 111.7C108.558 111.7 112.745 107.513 112.745 102.353C112.745 97.1925 108.558 93.0059 103.398 93.0059C98.2377 93.0059 94.0511 97.1925 94.0511 102.353C94.0511 107.513 98.2377 111.7 103.398 111.7Z" fill="#6200EE"/>
  <path d="M106.333 134.26L125.332 174.26" stroke="#6200EE" stroke-width="3" stroke-linecap="round"/>
  <path d="M80.598 138.92L35.598 168.92" stroke="#6200EE" stroke-width="3" stroke-linecap="round"/>
  <path d="M83.012 156.513C101.652 156.513 116.745 141.42 116.745 122.78C116.745 104.139 101.652 89.0459 83.012 89.0459C64.3713 89.0459 49.2784 104.139 49.2784 122.78C49.2784 141.42 64.3713 156.513 83.012 156.513Z" stroke="#6200EE" stroke-width="3"/>
  <path d="M80.598 138.92L124.598 180.92" stroke="#6200EE" stroke-width="3" stroke-linecap="round"/>
  <circle cx="124.5" cy="174.5" r="6.5" fill="#6200EE"/>
  <circle cx="35.5" cy="168.5" r="6.5" fill="#6200EE"/>
  <text x="270" y="210" font-family="Arial" font-size="12" fill="#6200EE">Полетели?</text>
  <path d="M255 192 L 260 175" stroke="#6200EE" stroke-width="1" fill="none"/>
</svg>