<?xml version="1.0" encoding="UTF-8"?><svg width="500" height="280" viewBox="0 0 500 280" fill="none" xmlns="http://www.w3.org/2000/svg">
  <rect width="500" height="280" rx="8" fill="#F5F5F5"/>
  <rect x="20" y="20" width="460" height="30" rx="4" fill="#E0E0E0"/>
  <rect x="40" y="28" width="120" height="14" rx="2" fill="#BDBDBD"/>
  <rect x="350" y="28" width="40" height="14" rx="2" fill="#6200EE"/>
  <rect x="400" y="28" width="40" height="14" rx="2" fill="#BDBDBD"/>
  
  <rect x="20" y="70" width="150" height="180" rx="4" fill="white" stroke="#E0E0E0" stroke-width="1"/>
  <rect x="40" y="90" width="110" height="14" rx="2" fill="#BDBDBD"/>
  <rect x="40" y="120" width="90" height="10" rx="2" fill="#E0E0E0"/>
  <rect x="40" y="140" width="110" height="10" rx="2" fill="#E0E0E0"/>
  <rect x="40" y="160" width="100" height="10" rx="2" fill="#E0E0E0"/>
  <rect x="40" y="180" width="80" height="10" rx="2" fill="#E0E0E0"/>
  <rect x="40" y="200" width="90" height="10" rx="2" fill="#E0E0E0"/>
  <rect x="40" y="220" width="60" height="10" rx="2" fill="#E0E0E0"/>
  
  <rect x="190" y="70" width="290" height="180" rx="4" fill="white" stroke="#E0E0E0" stroke-width="1"/>
  <rect x="210" y="90" width="250" height="14" rx="2" fill="#BDBDBD"/>
  
  <rect x="210" y="120" width="120" height="120" rx="4" fill="#F5F5F5"/>
  <rect x="350" y="120" width="110" height="55" rx="4" fill="#F5F5F5"/>
  <rect x="350" y="185" width="110" height="55" rx="4" fill="#F5F5F5"/>
  
  <rect x="225" y="135" width="90" height="90" rx="2" fill="#E0E0E0"/>
  <rect x="245" y="155" width="50" height="50" rx="2" fill="#6200EE" fill-opacity="0.3"/>
  <rect x="365" y="132" width="80" height="8" rx="2" fill="#BDBDBD"/>
  <rect x="365" y="147" width="60" height="8" rx="2" fill="#BDBDBD"/>
  <rect x="365" y="162" width="70" height="8" rx="2" fill="#BDBDBD"/>
  <rect x="365" y="197" width="80" height="8" rx="2" fill="#BDBDBD"/>
  <rect x="365" y="212" width="60" height="8" rx="2" fill="#BDBDBD"/>
  <rect x="365" y="227" width="70" height="8" rx="2" fill="#BDBDBD"/>
</svg>