<?xml version="1.0" encoding="UTF-8"?>
<svg width="900" height="550" viewBox="0 0 900 550" fill="none" xmlns="http://www.w3.org/2000/svg">
  <!-- Блок 1 (Светло-серый) -->
  <g>
    <rect x="30" y="30" width="400" height="160" rx="20" fill="#F5F5F5"/>
    <circle cx="70" cy="70" r="25" fill="white" stroke="#DDDDDD" stroke-width="1"/>
    <text x="65" y="75" font-family="Arial" font-size="18" font-weight="bold" fill="#333333">1</text>
    <text x="70" y="130" font-family="Arial" font-size="18" font-weight="bold" fill="#333333">Проводим подробный</text>
    <text x="70" y="160" font-family="Arial" font-size="18" fill="#333333">анализ продукта</text>
    
    <!-- Иконка аналитики -->
    <rect x="300" y="70" width="80" height="50" rx="5" fill="#333333"/>
    <circle cx="320" cy="85" r="8" fill="#6200EE"/>
    <rect x="335" y="75" width="35" height="5" rx="2.5" fill="#FFFFFF"/>
    <rect x="335" y="85" width="25" height="5" rx="2.5" fill="#FFFFFF"/>
    <rect x="335" y="95" width="30" height="5" rx="2.5" fill="#FFFFFF"/>
  </g>
  
  <!-- Блок 2 (Фиолетовый) -->
  <g>
    <rect x="470" y="30" width="400" height="160" rx="20" fill="#6200EE"/>
    <circle cx="510" cy="70" r="25" fill="white" stroke="#7A36DF" stroke-width="1"/>
    <text x="505" y="75" font-family="Arial" font-size="18" font-weight="bold" fill="#333333">2</text>
    <text x="510" y="130" font-family="Arial" font-size="18" font-weight="bold" fill="white">Разрабатываем</text>
    <text x="510" y="160" font-family="Arial" font-size="18" fill="white">стратегии продвижения</text>
    
    <!-- Иконка графика -->
    <rect x="760" y="60" width="70" height="50" rx="5" fill="white"/>
    <polyline points="770,90 780,80 790,85 800,70 810,60" stroke="#6200EE" stroke-width="2" fill="none"/>
    <circle cx="770" cy="90" r="3" fill="#6200EE"/>
    <circle cx="780" cy="80" r="3" fill="#6200EE"/>
    <circle cx="790" cy="85" r="3" fill="#6200EE"/>
    <circle cx="800" cy="70" r="3" fill="#6200EE"/>
    <circle cx="810" cy="60" r="3" fill="#6200EE"/>
  </g>
  
  <!-- Блок 3 (Черный) -->
  <g>
    <rect x="30" y="220" width="400" height="160" rx="20" fill="#111111"/>
    <circle cx="70" cy="260" r="25" fill="white" stroke="#333333" stroke-width="1"/>
    <text x="65" y="265" font-family="Arial" font-size="18" font-weight="bold" fill="#333333">3</text>
    <text x="70" y="320" font-family="Arial" font-size="18" font-weight="bold" fill="white">Запускаем рекламную</text>
    <text x="70" y="350" font-family="Arial" font-size="18" fill="white">кампанию и приводим клиентов</text>
    
    <!-- Иконка сообщений -->
    <rect x="320" y="270" width="80" height="40" rx="15" fill="#6200EE"/>
    <text x="345" y="295" font-family="Arial" font-size="12" fill="white">клиент</text>
    <path d="M300,280 L330,280" stroke="#9CFF2E" stroke-width="2"/>
    <path d="M300,280 L300,290 L310,280" stroke="#9CFF2E" stroke-width="2" fill="none"/>
  </g>
  
  <!-- Блок 4 (Салатовый) -->
  <g>
    <rect x="470" y="220" width="400" height="160" rx="20" fill="#E6FFD1"/>
    <circle cx="510" cy="260" r="25" fill="white" stroke="#DDDDDD" stroke-width="1"/>
    <text x="505" y="265" font-family="Arial" font-size="18" font-weight="bold" fill="#333333">4</text>
    <text x="510" y="320" font-family="Arial" font-size="16" font-weight="bold" fill="#333333">Присылаем полный аудит</text>
    <text x="510" y="345" font-family="Arial" font-size="16" fill="#333333">конкурентов, рекламных кампаний,</text>
    <text x="510" y="370" font-family="Arial" font-size="16" fill="#333333">геопозиции, объявлений и аудитории</text>
    
    <!-- Иконки аналитики -->
    <rect x="780" y="250" width="50" height="20" rx="5" fill="#9CFF2E"/>
    <text x="785" y="264" font-family="Arial" font-size="10" fill="#333333">Выполнено</text>
    <circle cx="750" cy="240" r="15" fill="white" stroke="#333333" stroke-width="1"/>
    <text x="745" y="244" font-family="Arial" font-size="12" fill="#333333">78%</text>
  </g>
  
  <!-- Блок 5 (Светло-серый) -->
  <g>
    <rect x="30" y="410" width="400" height="160" rx="20" fill="#F5F5F5"/>
    <circle cx="70" cy="450" r="25" fill="white" stroke="#DDDDDD" stroke-width="1"/>
    <text x="65" y="455" font-family="Arial" font-size="18" font-weight="bold" fill="#333333">5</text>
    <text x="70" y="510" font-family="Arial" font-size="18" font-weight="bold" fill="#333333">Предложим план размещения</text>
    <text x="70" y="535" font-family="Arial" font-size="18" fill="#333333">и продвижения объявлений</text>
    <text x="70" y="560" font-family="Arial" font-size="18" fill="#333333">исходя из задач</text>
    
    <!-- Иконки x0 x2 -->
    <text x="450" y="420" font-family="Arial" font-size="14" fill="#666666">x0</text>
    <text x="450" y="450" font-family="Arial" font-size="14" fill="#666666">x2</text>
    
    <!-- Иконка задач -->
    <rect x="380" y="460" width="40" height="60" rx="5" fill="white" stroke="#DDDDDD" stroke-width="1"/>
    <line x1="390" y1="470" x2="410" y2="470" stroke="#333333" stroke-width="2"/>
    <line x1="390" y1="480" x2="410" y2="480" stroke="#333333" stroke-width="2"/>
    <line x1="390" y1="490" x2="410" y2="490" stroke="#333333" stroke-width="2"/>
    <line x1="390" y1="500" x2="410" y2="500" stroke="#333333" stroke-width="2"/>
    <line x1="390" y1="510" x2="410" y2="510" stroke="#333333" stroke-width="2"/>
    
    <path d="M440,460 C 460,470 460,500 430,510" stroke="#333333" stroke-width="2" fill="none"/>
    <path d="M430,510 L435,515 L440,505" stroke="#333333" stroke-width="2" fill="none"/>
  </g>
  
  <!-- Блок 6 (Фиолетовый) -->
  <g>
    <rect x="470" y="410" width="400" height="160" rx="20" fill="#A020F0"/>
    <circle cx="510" cy="450" r="25" fill="white" stroke="#7A36DF" stroke-width="1"/>
    <text x="505" y="455" font-family="Arial" font-size="18" font-weight="bold" fill="#333333">6</text>
    <text x="510" y="510" font-family="Arial" font-size="16" font-weight="bold" fill="white">После запуска проанализируем</text>
    <text x="510" y="535" font-family="Arial" font-size="16" fill="white">еще раз и внесем корректировки</text>
    <text x="510" y="560" font-family="Arial" font-size="16" fill="white">для лучшего результата</text>
    
    <!-- Иконка эффективности -->
    <rect x="780" y="440" width="60" height="60" rx="5" fill="#E6FFD1"/>
    <text x="790" y="460" font-family="Arial" font-size="10" fill="#333333">План</text>
    <text x="790" y="475" font-family="Arial" font-size="10" fill="#333333">выполнения</text>
    
    <circle cx="810" cy="500" r="15" fill="none" stroke="#6200EE" stroke-width="3"/>
    <path d="M810,485 A15,15 0 0 1 823,500" stroke="#6200EE" stroke-width="3" fill="none"/>
    <text x="805" y="504" font-family="Arial" font-size="10" font-weight="bold" fill="#333333">80%</text>
  </g>
</svg>