<svg xmlns="http://www.w3.org/2000/svg" width="48" height="48" viewBox="0 0 48 48" fill="none">
  <rect width="48" height="48" rx="8" fill="#FFF0F0"/>
  <path d="M34 22V34H14V22H34ZM36 18H31.82C32.57 17.14 33 16.12 33 15C33 11.69 30.31 9 27 9C24.88 9 23 10.09 22 11.72C21 10.09 19.12 9 17 9C13.69 9 11 11.69 11 15C11 16.12 11.43 17.14 12.18 18H8C6.9 18 6 18.9 6 20V34C6 35.1 6.9 36 8 36H36C37.1 36 38 35.1 38 34V20C38 18.9 37.1 18 36 18ZM27 11C29.21 11 31 12.79 31 15C31 17.21 29.21 19 27 19H22V15C22 12.79 23.79 11 27 11ZM13 15C13 12.79 14.79 11 17 11C19.21 11 21 12.79 21 15V19H16C13.79 19 12 17.21 12 15H13ZM14 34V22H22V34H14ZM34 34H24V22H34V34Z" fill="#8139F2"/>
</svg>